<svg width="98" height="92" viewBox="0 0 98 92" fill="none" xmlns="http://www.w3.org/2000/svg">
<path fill-rule="evenodd" clip-rule="evenodd" d="M55.6377 17.467C55.6377 18.7571 55.7592 29.0416 55.5655 29.4126C55.4572 29.6161 55.1716 29.6785 54.8794 29.7408C54.6267 29.7934 54.456 29.8426 54.236 29.9083L45.0085 32.1175C44.7557 32.1831 44.5423 32.2028 44.329 32.2619L43.0323 32.5935C40.5966 33.1778 37.2483 34.0543 35.0588 34.4974C34.8027 34.5499 34.6616 34.6156 34.4121 34.6648C34.0477 34.737 34.0805 34.7502 33.7654 34.8322L17.2865 38.7747C16.3772 38.9323 15.5434 39.231 14.6341 39.405C14.2894 39.4706 14.2369 39.4542 14.227 39.0734C14.099 30.6895 14.1909 22.2433 14.2369 13.8528C14.2402 13.3506 14.3551 12.8286 13.7412 13.0518L11.637 14.1318C11.4401 14.2434 11.3022 14.3354 11.1282 14.4141L0.0755005 20.1391V41.9228C0.0755005 42.9962 0 43.9153 0 45.0314L0.0755005 63.7032C0.0755005 64.7175 0.00657468 65.7975 0.121468 66.779C0.157577 67.104 0.0229881 67.836 0.0590973 68.1577C0.0886412 68.4269 0.164139 68.6108 0.151009 68.8405L0.0755005 72.5926C0.0755005 72.783 0.377516 72.8782 0.541649 72.9701L2.29786 73.8794C3.07257 74.3291 3.89323 74.6607 4.66466 75.1137C5.04216 75.3336 5.43609 75.4814 5.81359 75.6947C6.21079 75.9212 6.57515 76.0886 7.00518 76.302C7.4549 76.5187 7.7405 76.7058 8.17053 76.9356C8.38062 77.0505 8.56117 77.1325 8.74828 77.2212L12.891 79.3483C13.0945 79.4501 13.9119 79.9655 14.1253 79.867C14.3944 79.7455 14.2402 78.7312 14.2402 78.4325V48.5209C14.831 48.2649 17.2208 47.7495 18.0316 47.5689L34.9701 43.4985C35.364 43.4 35.8236 43.3245 36.2405 43.2063C36.6574 43.0881 37.1695 42.9732 37.5503 42.8846C38.0066 42.7828 38.3381 42.704 38.8141 42.5891L44.004 41.3221C44.26 41.2662 44.4471 41.2597 44.6933 41.1907C46.1705 40.7804 47.7626 40.5638 49.1972 40.0582C49.8143 39.8416 50.4577 39.7694 51.1372 39.6216C51.4129 39.5593 51.5344 39.4739 51.7379 39.4148C52.2106 39.2802 53.0116 39.2277 53.7764 38.9881C53.9471 38.9356 54.1835 38.8075 54.3608 38.7714C54.6332 38.7123 54.8367 38.7452 55.1125 38.6828C55.4834 38.6007 55.3948 38.6007 55.7165 38.7419C55.7034 39.2277 55.5425 39.126 55.6246 39.7037C55.7329 40.4587 55.6377 46.8369 55.6377 47.7593C56.2844 47.9005 57.1051 47.5919 57.7156 47.4343L68.3285 44.9034C70.1142 44.4832 69.7958 44.6802 69.7958 42.1723C69.7958 41.9031 69.74 41.8177 69.7334 41.6569C69.7269 41.4632 69.7958 41.3811 69.7958 41.0923V32.0124C69.7958 31.6645 69.6284 31.6546 69.6579 31.3329C69.6743 31.1557 69.7958 30.8438 69.7958 30.614C69.7958 29.7868 69.5496 30.0297 69.7564 28.9268C69.9041 28.1159 69.7958 16.6759 69.7958 15.7502C70.3309 15.7863 76.7419 18.9869 77.8777 19.5351L83.2514 22.1087C83.6256 22.3023 83.7274 22.4501 83.7274 22.9228V41.9753C83.7274 42.1821 83.642 42.3068 83.4615 42.3922C83.0151 42.599 81.4919 42.9109 80.9109 43.029L62.6954 47.3851C62.4985 47.4278 62.2391 47.5066 62.0422 47.5525C61.5892 47.6543 61.146 47.7659 60.7324 47.8742L59.4128 48.1861C58.9499 48.2911 58.5199 48.406 58.0964 48.5045L47.6642 50.9928C46.9091 51.1667 43.0816 52.1876 42.4021 52.1975C42.0935 51.7215 42.2478 50.6382 42.2478 50.0408V43.1177C41.7029 42.9043 41.0299 43.1833 40.485 43.3245L33.2566 45.0741C32.6197 45.2186 32.0387 45.3532 31.3855 45.5107L29.6063 45.9539C29.0548 46.1016 28.0864 46.1246 28.0864 46.6761C28.0864 48.5143 28.047 50.5201 28.1619 52.3321C28.1783 52.6078 28.0864 52.7358 28.0864 53.0904C28.0864 53.4252 28.1652 53.5467 28.1619 53.7863C28.152 54.0128 28.0864 54.1539 28.0864 54.4888V83.6387C28.0864 84.1049 28.2866 84.1574 28.628 84.338L37.9147 89.1635C38.6139 89.5771 39.4411 89.9152 40.16 90.3058C42.5662 91.6156 42.2478 91.6714 42.2478 89.1011C42.2478 85.2407 42.1362 62.0192 42.3003 61.5169C42.4349 61.1066 43.3507 61.0016 44.2141 60.8046L48.603 59.7673C50.7531 59.206 52.9 58.7694 55.0731 58.2212L65.9682 55.6049C67.4323 55.2635 68.8537 54.8893 70.2718 54.5676L79.0266 52.4798C79.5289 52.3616 83.0249 51.4425 83.4122 51.4425C83.7339 51.4425 83.6322 51.6755 83.6683 51.9283C83.8357 53.0969 83.7208 76.1543 83.7208 79.3844C83.7208 79.6044 83.6617 79.6306 83.6453 79.8309C84.0688 79.8309 84.2067 79.7685 84.5218 79.5978L97.3767 72.9406C97.3898 72.934 97.4095 72.9242 97.4226 72.9143C97.5408 72.852 97.4456 72.9012 97.5605 72.8355C97.6557 72.783 97.7017 72.76 97.8001 72.7174C97.8001 66.093 97.8001 59.4653 97.8001 52.8409C97.8001 49.4893 97.8789 46.3445 97.8789 42.9962L97.8001 30.486C97.8001 29.534 97.8789 28.802 97.8789 27.8829V20.4509C97.8789 19.9979 97.1764 19.8108 96.7924 19.6303C95.4662 19.0066 94.1892 18.3172 92.8499 17.723L90.2074 16.4625C89.0453 15.9537 87.2562 14.9459 86.2747 14.5454C84.9715 14.0235 77.2868 10.2419 77.0406 10.1204L60.5781 2.22892C60.3286 2.10746 60.1743 2.01883 59.9216 1.88096C59.5638 1.68728 56.0481 0.00328064 55.8642 0.00328064C55.385 0.00328064 55.5556 1.65445 55.5556 1.96959C55.5556 3.81116 55.4046 7.10695 55.5622 8.63338C55.7592 10.626 55.6344 15.1987 55.6344 17.4637L55.6377 17.467ZM55.6377 59.3176C55.6377 61.9404 55.7428 64.7569 55.5852 67.2714L55.6147 70.9579C55.7395 72.1692 55.6377 73.7514 55.6377 75.0054C55.6377 80.3824 55.6377 85.7561 55.6377 91.1363C56.3238 91.2676 56.3107 90.9952 57.7222 90.3058L59.5408 89.3834C59.8658 89.2061 60.1251 89.0683 60.4402 88.914L63.132 87.4992C63.9888 87.0265 65.9814 86.0942 66.7101 85.6707C67.4224 85.2538 68.7683 84.6433 69.4084 84.269C69.5988 84.1574 69.6514 84.164 69.7269 83.9572C69.9599 83.3203 69.763 77.0734 69.7663 75.8917L69.8024 56.524C69.8024 56.2483 69.7137 56.1793 69.6481 55.9528C69.1163 55.9528 67.6391 56.3763 67.0253 56.5339C66.7495 56.6028 66.4344 56.6619 66.116 56.7374L62.574 57.5778C61.8157 57.755 56.1892 59.0188 55.641 59.3176H55.6377ZM28.093 7.56323V34.4252C28.093 34.6451 28.1488 34.6714 28.1685 34.8684C28.7823 34.8684 28.697 34.8684 29.1171 34.7567L30.01 34.5368C30.1151 34.5171 30.3022 34.4941 30.4532 34.4547L35.2885 33.2795C36.6114 32.9808 38.3348 32.4884 39.6019 32.2455C39.7497 32.216 39.8678 32.1799 40.009 32.1339C40.1666 32.0847 40.3405 32.0485 40.4883 32.019L42.2511 31.5594V3.93591C42.2511 2.95767 42.3889 0.758293 42.1756 0C41.7324 0.0295439 41.5256 0.183832 41.217 0.35453C40.892 0.535076 40.6261 0.643399 40.3012 0.810814C40.1305 0.899446 40.0582 0.961814 39.8974 1.05045C39.7136 1.14893 39.6085 1.19488 39.4214 1.29665C37.9606 2.0812 36.4309 2.78041 34.9471 3.59451L28.2899 7.08725C28.2111 7.1529 28.093 7.12664 28.093 7.55995V7.56323Z" fill="url(#paint0_linear_19_5)"/>
<defs>
<linearGradient id="paint0_linear_19_5" x1="495.492" y1="24.0513" x2="836.047" y2="24.0513" gradientUnits="userSpaceOnUse">
<stop stop-color="#8F3031"/>
<stop offset="0.0313725" stop-color="#4B2E2E"/>
<stop offset="0.509804" stop-color="#8F3031"/>
<stop offset="1" stop-color="#622B2C"/>
</linearGradient>
</defs>
</svg>
